<svg
  xmlns="http://www.w3.org/2000/svg"
  width="24"
  height="24"
  viewBox="0 0 24 24"
  fill="none"
>
  <path
    opacity="0.28"
    d="M8.16671 1C6.04962 1 4.33337 2.71624 4.33337 4.83333C4.33337 6.95042 6.04962 8.66667 8.16671 8.66667C6.04962 8.66667 4.33337 10.3829 4.33337 12.5C4.33337 14.6171 6.04962 16.3333 8.16671 16.3333C6.04962 16.3333 4.33337 18.0496 4.33337 20.1667C4.33337 22.2838 6.04962 24 8.16671 24C10.2838 24 12 22.2838 12 20.1667V8.66667H15.8334C17.9505 8.66667 19.6667 6.95042 19.6667 4.83333C19.6667 2.71624 17.9505 1 15.8334 1H8.16671Z"
    fill="currentColor"
  />
  <path
    d="M12.0001 12.5C12.0001 10.3829 13.7163 8.66666 15.8334 8.66666C17.9505 8.66666 19.6667 10.3829 19.6667 12.5C19.6667 14.6171 17.9505 16.3333 15.8334 16.3333C13.7163 16.3333 12.0001 14.6171 12.0001 12.5Z"
    fill="currentColor"
  />
</svg>
