<svg
  xmlns="http://www.w3.org/2000/svg"
  width="24"
  height="24"
  viewBox="0 0 24 24"
  fill="none"
>
  <path
    opacity="0.32"
    d="M13.4906 2.22933C12.5199 1.92616 11.4799 1.92616 10.5093 2.22933C9.89992 2.41965 9.37356 2.7554 8.82894 3.19337C8.30086 3.61803 7.69672 4.18862 6.94904 4.89478L4.23265 7.46022C3.57619 8.07984 3.12184 8.50869 2.78981 9.02697C2.49644 9.4849 2.27974 9.98762 2.14826 10.5153C1.99944 11.1126 1.99963 11.7374 1.9999 12.6401L1.99992 14.6428C1.99991 15.7266 1.99991 16.6007 2.05774 17.3086C2.11729 18.0375 2.2431 18.6777 2.54489 19.2699C3.02426 20.2108 3.78916 20.9757 4.72997 21.455C5.32226 21.7568 5.96245 21.8826 6.6913 21.9422C7.39915 22 8.27326 22 9.35699 22H14.6428C15.7265 22 16.6007 22 17.3085 21.9422C18.0374 21.8826 18.6776 21.7568 19.2699 21.455C20.2107 20.9757 20.9756 20.2108 21.455 19.2699C21.7567 18.6777 21.8826 18.0375 21.9421 17.3086C21.9999 16.6008 21.9999 15.7267 21.9999 14.6429L21.9999 12.6401C22.0002 11.7374 22.0004 11.1126 21.8516 10.5153C21.7201 9.98762 21.5034 9.4849 21.21 9.02697C20.878 8.50869 20.4237 8.07985 19.7672 7.46024L17.0508 4.89481C16.3031 4.18863 15.699 3.61804 15.1709 3.19337C14.6263 2.7554 14.0999 2.41965 13.4906 2.22933Z"
    fill="currentColor"
  />
  <path
    d="M20.8813 10.7571C20.7761 10.3349 20.6028 9.93275 20.3681 9.56641C20.1033 9.15313 19.7337 8.80402 18.9944 8.1058L16.3944 5.65025C14.8479 4.18966 14.0746 3.45937 13.1925 3.18385C12.416 2.94132 11.584 2.94132 10.8075 3.18385C9.92535 3.45937 9.1521 4.18966 7.6056 5.65025L5.0056 8.1058C4.26631 8.80402 3.89666 9.15313 3.63189 9.56641C3.3972 9.93275 3.22384 10.3349 3.11865 10.7571"
    stroke="currentColor"
    stroke-width="2"
    stroke-linecap="round"
    stroke-linejoin="round"
  />
</svg>
